<svg width="32" height="32" viewBox="0 0 32 32" fill="none" xmlns="http://www.w3.org/2000/svg">
<rect width="32" height="32"/>
<circle cx="16" cy="16" r="11.5" fill="#DCDCDC" stroke="#1372CB" stroke-width="3"/>
<path d="M21.0405 1.91934C21.1751 1.80053 21.3669 1.97571 21.2607 2.12052L11.9497 14.8173C11.4335 15.5212 11.4335 16.4787 11.9497 17.1827L21.2606 29.8795C21.3668 30.0243 21.1751 30.1995 21.0404 30.0807L5.08237 16L21.0405 1.91934Z" fill="#2723CA"/>
<path d="M21.0405 1.91934C21.1751 1.80053 21.3669 1.97571 21.2607 2.12052L11.9497 14.8173C11.4335 15.5212 11.4335 16.4787 11.9497 17.1827L21.2606 29.8795C21.3668 30.0243 21.1751 30.1995 21.0404 30.0807L5.08237 16L21.0405 1.91934Z" fill="#2723CA"/>
<path d="M5.08237 16L21.0404 30.0807C21.1751 30.1995 21.3668 30.0243 21.2606 29.8795L11.9497 17.1827C11.4335 16.4787 11.4335 15.5212 11.9497 14.8173L21.2607 2.12052C21.3669 1.97571 21.1751 1.80053 21.0405 1.91934L5.08237 16Z" stroke="black" stroke-width="0.1"/>
<path d="M11.2077 1.91935C11.073 1.80054 10.8813 1.97572 10.9875 2.12053L20.2985 14.8173C20.8147 15.5213 20.8147 16.4787 20.2985 17.1827L10.9875 29.8795C10.8813 30.0243 11.0731 30.1995 11.2077 30.0807L27.1658 16L11.2077 1.91935Z" fill="#95D3EE"/>
<path d="M11.2077 1.91935C11.073 1.80054 10.8813 1.97572 10.9875 2.12053L20.2985 14.8173C20.8147 15.5213 20.8147 16.4787 20.2985 17.1827L10.9875 29.8795C10.8813 30.0243 11.0731 30.1995 11.2077 30.0807L27.1658 16L11.2077 1.91935Z" fill="#95D3EE"/>
<path d="M27.1658 16L11.2077 30.0807C11.0731 30.1995 10.8813 30.0243 10.9875 29.8795L20.2985 17.1827C20.8147 16.4787 20.8147 15.5213 20.2985 14.8173L10.9875 2.12053C10.8813 1.97572 11.073 1.80054 11.2077 1.91935L27.1658 16Z" stroke="black" stroke-width="0.1"/>
</svg>