<svg width="32" height="32" viewBox="0 0 32 32" fill="none" xmlns="http://www.w3.org/2000/svg">
    <circle cx="16" cy="16" r="11.5" stroke="#1B91FD" stroke-width="3"/>
    <path d="M20.533 1.35028C20.6229 1.28282 20.7385 1.39219 20.6762 1.48575L11 16H1L20.533 1.35028Z" fill="url(#paint0_linear_101_2)"/>
    <path d="M11.467 30.6497C11.3771 30.7172 11.2615 30.6078 11.3238 30.5143L21 16H31L11.467 30.6497Z" fill="url(#paint1_linear_101_2)"/>
    <path d="M20.533 30.6497C20.6229 30.7172 20.7385 30.6078 20.6762 30.5143L11 16H1L20.533 30.6497Z" fill="url(#paint2_linear_101_2)"/>
    <path d="M11.467 1.35028C11.3771 1.28282 11.2615 1.39219 11.3238 1.48575L21 16H31L11.467 1.35028Z" fill="url(#paint3_linear_101_2)"/>
    <defs>
        <linearGradient id="paint0_linear_101_2" x1="1" y1="16" x2="21" y2="16" gradientUnits="userSpaceOnUse">
            <stop stop-color="#0400B5"/>
            <stop offset="1" stop-color="#7C7BB8"/>
        </linearGradient>
        <linearGradient id="paint1_linear_101_2" x1="31" y1="16" x2="11" y2="16" gradientUnits="userSpaceOnUse">
            <stop stop-color="#8BD1EF"/>
            <stop offset="1" stop-color="#00405B"/>
        </linearGradient>
        <linearGradient id="paint2_linear_101_2" x1="1" y1="16" x2="21" y2="16" gradientUnits="userSpaceOnUse">
            <stop stop-color="#0400B5"/>
            <stop offset="1" stop-color="#7C7BB8"/>
        </linearGradient>
        <linearGradient id="paint3_linear_101_2" x1="31" y1="16" x2="11" y2="16" gradientUnits="userSpaceOnUse">
            <stop stop-color="#8BD1EF"/>
            <stop offset="1" stop-color="#00405B"/>
        </linearGradient>
    </defs>
</svg>
